<mxfile host="app.diagrams.net" modified="2023-05-11T10:05:40.590Z" agent="Mozilla/5.0 (X11; Linux x86_64) AppleWebKit/537.36 (KHTML, like Gecko) Chrome/113.0.0.0 Safari/537.36" version="21.2.9" etag="ylqso3DO0Z0hEDlw33e7" type="github">
  <diagram name="Страница 1" id="uwFEdxgpk832R23r9vTN">
    <mxGraphModel>
      <root>
        <mxCell id="0" />
        <mxCell id="1" parent="0" />
      </root>
    </mxGraphModel>
  </diagram>
</mxfile>
